HIERARCHY
ROOT Hips
{
	OFFSET 0.00000 0.00000 0.00000
	CHANNELS 6 Xposition Yposition Zposition Zrotation Yrotation Xrotation 
	JOINT LHipJoint
	{
		OFFSET 0 0 0
		CHANNELS 3 Zrotation Yrotation Xrotation
		JOINT LeftHip
		{
			OFFSET 1.75344 -1.53157 0.77399
			CHANNELS 3 Zrotation Yrotation Xrotation
			JOINT LeftKnee
			{
				OFFSET 2.25415 -6.19323 0.00000
				CHANNELS 3 Zrotation Yrotation Xrotation
				JOINT LeftAnkle
				{
					OFFSET 2.30342 -6.32861 0.00000
					CHANNELS 3 Zrotation Yrotation Xrotation
					JOINT LeftToe
					{
						OFFSET 0.10958 -0.30108 1.49206
						CHANNELS 3 Zrotation Yrotation Xrotation
						End Site
						{
							OFFSET 0.00000 -0.00000 0.77783
						}
					}
				}
			}
		}
	}
	JOINT RHipJoint
	{
		OFFSET 0 0 0
		CHANNELS 3 Zrotation Yrotation Xrotation
		JOINT RightHip
		{
			OFFSET -1.81912 -1.53156 0.77399
			CHANNELS 3 Zrotation Yrotation Xrotation
			JOINT RightKnee
			{
				OFFSET -2.22882 -6.12365 0.00000
				CHANNELS 3 Zrotation Yrotation Xrotation
				JOINT RightAnkle
				{
					OFFSET -2.21943 -6.09785 0.00000
					CHANNELS 3 Zrotation Yrotation Xrotation
					JOINT RightToe
					{
						OFFSET -0.18931 -0.52012 1.59379
						CHANNELS 3 Zrotation Yrotation Xrotation
						End Site
						{
							OFFSET -0.00000 -0.00000 0.84686
						}
					}
				}
			}
		}
	}
	JOINT lowerback
	{
		OFFSET 0 0 0
		CHANNELS 3 Zrotation Yrotation Xrotation
		JOINT Chest
		{
			OFFSET -0.00200 1.66634 -0.14248
			CHANNELS 3 Zrotation Yrotation Xrotation
			JOINT Chest2
			{
				OFFSET -0.00875 1.64542 0.09514
				CHANNELS 3 Zrotation Yrotation Xrotation
				JOINT lowerneck
				{
					OFFSET 0 0 0
					CHANNELS 3 Zrotation Yrotation Xrotation
					JOINT Neck
					{
						OFFSET 0.02257 1.59605 0.00839
						CHANNELS 3 Zrotation Yrotation Xrotation
						JOINT Head
						{
							OFFSET -0.10214 1.57530 -0.23335
							CHANNELS 3 Zrotation Yrotation Xrotation
							End Site
							{
								OFFSET -0.03588 1.60717 -0.08062
							}
						}
					}
				}
				JOINT LeftCollar
				{
					OFFSET 0 0 0
					CHANNELS 3 Zrotation Yrotation Xrotation
					JOINT LeftShoulder
					{
						OFFSET 2.54983 1.10186 0.40078
CHANNELS 3 Zrotation Xrotation Yrotation
						JOINT LeftElbow
						{
OFFSET 0 -4.288400 0.000000
CHANNELS 3 Zrotation Xrotation Yrotation
							JOINT LeftWrist
							{
OFFSET 0 -3.065520 -0.000000
CHANNELS 3 Zrotation Xrotation Yrotation
								JOINT lhand
								{
									OFFSET 0 0 0
CHANNELS 3 Zrotation Xrotation Yrotation
									JOINT LFingers
									{
OFFSET 0 -0.753040 0.000000
CHANNELS 3 Zrotation Xrotation Yrotation
										End Site
										{
OFFSET 0 -0.607120 0.000000
										}
									}
								}
								JOINT LThumb
								{
OFFSET 0 0.000000 0.000000
CHANNELS 3 Zrotation Xrotation Yrotation
									End Site
									{
OFFSET 0 -0.616390 0.616390
									}
								}
							}
						}
					}
				}
				JOINT RightCollar
				{
					OFFSET 0 0 0
					CHANNELS 3 Zrotation Yrotation Xrotation
					JOINT RightShoulder
					{
						OFFSET -2.60909 1.35448 0.21802
CHANNELS 3 Zrotation Xrotation Yrotation
						JOINT RightElbow
						{
OFFSET 0 -4.521720 -0.000000
CHANNELS 3 Zrotation Xrotation Yrotation
							JOINT RightWrist
							{
OFFSET 0 -2.891400 0.000000
CHANNELS 3 Zrotation Xrotation Yrotation
								JOINT rhand
								{
									OFFSET 0 0 0
CHANNELS 3 Zrotation Xrotation Yrotation
									JOINT RFingers
									{
OFFSET 0 -0.680540 0.000000
CHANNELS 3 Zrotation Xrotation Yrotation
										End Site
										{
OFFSET 0 -0.548670 0.000000
										}
									}
								}
								JOINT RThumb
								{
OFFSET 0 0.000000 0.000000
CHANNELS 3 Zrotation Xrotation Yrotation
									End Site
									{
OFFSET 0 -0.557050 0.557050
									}
								}
							}
						}
					}
				}
			}
		}
	}
}
MOTION
Frames: 4
Frame Time: 0.008333333333333333
8.716172 15.513443 21.992673 -179.551521 3.653766 183.171641 0.000000 0.000000 0.000000 -25.129702 -22.962393 2.572553 1.458933 7.634178 21.608241 0.858906 16.246958 -29.869557 3.224144 -11.049216 -32.446204 0.000000 0.000000 0.000000 25.750640 21.414651 6.553428 -0.778696 -5.634022 15.726019 0.982121 -23.987260 -26.838007 -0.038430 1.262755 -3.472017 0.717513 0.202627 7.427211 0.305037 0.463829 -4.494551 -0.155254 0.228720 -8.929762 -5.450284 -1.286763 -12.626817 6.038464 -1.453906 16.645640 2.748686 -0.358280 7.265854 0.000000 0.000000 0.000000 22.333205 18.886069 -5.111142 15.480962 -24.811848 3.425277 -6.509623 26.578961 25.781036 0.000000 0.000000 0.000000 -7.125000 0.000000 0.000000 -21.584330 5.482432 -21.009140 0.000000 0.000000 0.000000 -25.340056 21.501342 26.291281 -15.571325 -24.935949 -3.463205 8.415732 19.001912 54.106484 0.000000 0.000000 0.000000 7.125000 0.000000 0.000000 79.964493 68.761348 -56.802656
8.717220 15.515539 21.997206 -179.546694 3.794839 183.280282 0.000000 0.000000 0.000000 -25.055485 -22.919642 2.410059 1.459869 7.636491 21.615274 0.882404 16.142971 -29.919789 3.140995 -10.919841 -32.010208 0.000000 0.000000 0.000000 25.688514 21.495800 6.419871 -0.776692 -5.626823 15.705363 0.909557 -23.711432 -26.942636 -0.019634 0.904140 -2.484998 0.692660 0.231999 7.430750 0.291275 0.497799 -4.475850 -0.160853 0.245777 -8.911241 -5.342491 -1.266731 -12.418526 5.938267 -1.440036 16.367799 2.693951 -0.361985 7.136659 0.000000 0.000000 0.000000 23.127425 19.184052 -5.213721 15.611827 -24.991539 3.480376 -6.150149 25.768013 25.930828 0.000000 0.000000 0.000000 -7.125000 0.000000 0.000000 -21.372866 5.333519 -20.833608 0.000000 0.000000 0.000000 -25.965097 21.633122 26.439403 -15.559304 -24.919471 -3.458212 9.415587 18.256623 54.189622 0.000000 0.000000 0.000000 7.125000 0.000000 0.000000 80.678356 68.448174 -57.103146
8.717691 15.516123 22.001165 -179.473538 3.918993 183.349975 0.000000 0.000000 0.000000 -24.924226 -22.854883 2.265016 1.464176 7.647292 21.647775 0.875826 16.152489 -29.885326 3.133571 -10.908102 -31.970806 0.000000 0.000000 0.000000 25.703692 21.480597 6.306652 -0.772582 -5.612338 15.663561 0.880385 -23.529760 -26.856483 -0.020197 0.912841 -2.509137 0.741958 0.242223 7.481306 0.321573 0.516520 -4.423600 -0.159166 0.251786 -8.883857 -5.319293 -1.277737 -12.246959 5.810532 -1.449749 16.045507 2.641647 -0.386669 7.001904 0.000000 0.000000 0.000000 23.833551 19.426838 -5.086309 15.614248 -24.994773 3.481451 -5.674787 25.429562 26.545833 0.000000 0.000000 0.000000 -7.125000 0.000000 0.000000 -21.072231 4.741451 -20.738949 0.000000 0.000000 0.000000 -26.662391 21.690330 26.771717 -15.548252 -24.904294 -3.453562 10.420489 17.298460 54.430157 0.000000 0.000000 0.000000 7.125000 0.000000 0.000000 81.766803 68.171565 -57.827482
8.719366 15.517912 22.006889 -179.401022 4.055837 183.419740 0.000000 0.000000 0.000000 -24.765230 -22.703974 2.050571 1.473703 7.671031 21.719238 0.879997 16.109325 -29.868616 3.182353 -10.984351 -32.227360 0.000000 0.000000 0.000000 25.719028 21.473529 6.197668 -0.764389 -5.583189 15.579690 0.905887 -23.496036 -26.576339 -0.026656 1.053559 -2.896191 0.743287 0.258881 7.556172 0.354611 0.537603 -4.354897 -0.128062 0.261506 -8.853346 -5.188787 -1.274267 -12.006156 5.621943 -1.453243 15.606415 2.551003 -0.409770 6.816421 0.000000 0.000000 0.000000 24.453941 19.598179 -4.305738 15.339660 -24.616501 3.366578 -3.535321 25.851717 28.912037 0.000000 0.000000 0.000000 -7.125000 0.000000 0.000000 -19.784915 2.423340 -20.165643 0.000000 0.000000 0.000000 -27.367376 21.788335 27.293361 -15.582188 -24.950837 -3.467841 11.226967 16.356845 54.594550 0.000000 0.000000 0.000000 7.125000 0.000000 0.000000 82.563696 67.942602 -58.328628
